<svg enable-background="new 0 0 595.28 841.89" viewBox="0 0 595.28 841.89" xmlns="http://www.w3.org/2000/svg"><path d="m450.14 518.45c6.6 0 12-5.4 12-12v-39.85l-9.27-9.7 9.27-8.68v-59.23l-7.73-8.17-2.04-8.94 5.25 2.37 4.52-9.25v-29.55c0-6.6-5.4-12-12-12h-85.61l-6.13 8.85-14.3-8.85h-98.04l-20.43 10.9-3.06-10.9h-77.44c-6.6 0-12 5.4-12 12l8.24 22.9-8.24 3.57v82.08l6.71 3.7-6.71 20.43v38.32c0 6.6 5.4 12 12 12h79.87l8.1-3.07-1.46-4.1 9.35 1.11 7.63-2.89 5.62 8.96h151.15l11.74-7.93 6.87 7.93h26.14z" fill="#7d4e24"/><path d="m426.59 512.78-15.08-7.88-7.86 7.88h-146.28l-.07-8.9-17.02 2.72-17.04-2.01-5.77 4.92-5.62 3.29h-66.71c-3.5 0-6.33-2.83-6.33-6.33v-37.41l5.87-17.85-5.87-10.53 3.6-72.61 7.15-10.21-10.69-23.22c.41-3.1 3.07-5.49 6.28-5.49l67.22 4.2 9.73 9.34 25.39-13.54h94.62l4.63 7.04 24.95-3.86 78.46-3.18c3.49 0 6.33 2.84 6.33 6.33v28.24l-1.53 3.13-10.66-4.85 4.93 21.58 7.25 7.65v54.52l-7.86 14.88 7.86 8.23v37.58c0 3.5-2.83 6.33-6.33 6.33h-23.55z" fill="#ca9e67"/><g fill="#7d4e24"><path d="m170.69 515.79-9.18-19.16-.27-.57.39-.43 21.63-23.93-20.25 25.1.11-1 10.24 18.62z"/><path d="m135.16 410.96 16.53-12.91.66-.51.62.41 9.58 6.29-.4-.04 14.98-5.27-14.64 6.14-.19.08-.21-.11-10.25-5.13 1.28-.1-16.07 13.48z"/><path d="m396.99 330.26-2.93 2.1-.21-2.02 26.34 15.55-27.5-13.39-1.51-.74 1.3-1.28 2.58-2.52z"/><path d="m363.34 480.21 3.94 13.06.1.34-.31.24-8.3 6.5.36-.59-1.8 15.57-2.96-.45 2.96-15.4.08-.4.29-.2 8.72-5.92-.21.58z"/><path d="m431.09 478.17 3.7 5.96-.52-.1 4.73-4.24.59-.53.28.78 3.51 9.8-.46-.47 13.93 4.79.43.15.22.49 3.24 7.34-2.8 1.08-2.5-7.63.65.63-13.7-5.42-.35-.14-.1-.33-3.11-9.94.87.24-4.99 3.93-.34.28-.18-.37z"/><path d="m422.23 418.94 11.66 7.59-.64-.1 22.75-8.24.93 2.85-23.24 6.74-.38.11-.26-.21z"/><path d="m459.23 407.03-9.42 9.18 7.09-11.07z"/></g><path d="m205.29 397.74c-4.37 4.47-8.38 9.25-12.06 14.31-1.9 2.6 2.44 5.1 4.32 2.52 3.43-4.71 7.2-9.13 11.28-13.3 2.24-2.3-1.29-5.84-3.54-3.53z" fill="#ca9e67"/><path d="m197.89 420.95-10.89 13.65" fill="none" stroke="#ca9e67" stroke-miterlimit="10"/><path d="m399.12 353.82c-.8 1.44-1.65 2.85-2.49 4.26s-1.67 2.83-2.55 4.22c-1.72 2.8-3.48 5.57-5.26 8.32-1.78 2.76-3.59 5.5-5.42 8.22-1.81 2.73-3.69 5.43-5.54 8.13l.06-.95c2.65 5.44 5.27 10.9 7.83 16.38 1.27 2.75 2.56 5.48 3.8 8.25 1.25 2.76 2.51 5.51 3.71 8.29-1.5-2.63-2.93-5.3-4.39-7.96-1.46-2.65-2.87-5.33-4.3-8-2.83-5.35-5.6-10.73-8.36-16.12l-.25-.49.31-.47c1.82-2.73 3.62-5.47 5.48-8.18 1.84-2.71 3.71-5.41 5.61-8.09 1.89-2.68 3.81-5.35 5.76-7.98.96-1.33 1.97-2.63 2.96-3.94 1.02-1.3 2.01-2.61 3.04-3.89z" fill="#7d4e24"/><path d="m190.75 399.16c1.61 1.46 3.18 2.96 4.75 4.46 1.58 1.49 3.15 2.99 4.7 4.52 3.11 3.03 6.19 6.09 9.24 9.19l.47.48-.34.6c-1.19 2.08-2.38 4.17-3.6 6.23l-3.64 6.21c-2.45 4.12-4.92 8.24-7.44 12.32l-.07-.98c2.38 3.06 4.75 6.13 7.08 9.23 1.18 1.54 2.31 3.12 3.47 4.67 1.15 1.56 2.3 3.12 3.42 4.71-1.32-1.42-2.61-2.87-3.9-4.33-1.29-1.45-2.59-2.89-3.85-4.36-2.55-2.92-5.06-5.88-7.56-8.85l-.37-.44.3-.53c2.37-4.17 4.78-8.32 7.21-12.46l3.68-6.18c1.22-2.06 2.47-4.11 3.72-6.16l.13 1.08c-2.97-3.17-5.9-6.37-8.81-9.6-1.46-1.61-2.9-3.24-4.32-4.88-1.44-1.63-2.87-3.26-4.27-4.93z" fill="#7d4e24"/></svg>